<svg xmlns="http://www.w3.org/2000/svg" viewBox="0 0 237.9 53.3"><defs><style>.cls-1{fill:#444;}</style></defs><g id="Layer_2" data-name="Layer 2"><g id="Layer_1-2" data-name="Layer 1"><path class="cls-1" d="M22.08,52.42H6.33q-3.42,0-4.87-1.53T0,46V7.28C0,5,.5,3.37,1.49,2.37S4.1.88,6.33.88H23a38.43,38.43,0,0,1,6.4.46,13.7,13.7,0,0,1,4.85,1.75,12.87,12.87,0,0,1,3.23,2.76,12.48,12.48,0,0,1,2.15,3.69,12.46,12.46,0,0,1,.73,4.28q0,7.72-7.73,11.32,10.16,3.22,10.16,12.58a14.19,14.19,0,0,1-2.21,7.79,13.36,13.36,0,0,1-6,5.12A21.57,21.57,0,0,1,29.21,52,54.78,54.78,0,0,1,22.08,52.42ZM10.44,8.72V22H20a18.94,18.94,0,0,0,6-.74,5.76,5.76,0,0,0,3.26-2.81,6.36,6.36,0,0,0,.87-3.3q0-3.9-2.77-5.19T18.91,8.72ZM21.3,29.53H10.44v15H21.66q10.58,0,10.58-7.63a6.24,6.24,0,0,0-2.74-5.66Q26.76,29.54,21.3,29.53Z"/><path class="cls-1" d="M75.45,47.88a29.43,29.43,0,0,1-6.74,4.06,18.68,18.68,0,0,1-7.29,1.36,13.86,13.86,0,0,1-6.49-1.46,10.58,10.58,0,0,1-4.3-4,10.24,10.24,0,0,1-1.52-5.41,9.69,9.69,0,0,1,2.5-6.72A12.46,12.46,0,0,1,58.46,32c.61-.14,2.13-.46,4.54-1s4.48-.95,6.21-1.36,3.59-.9,5.6-1.49c-.12-2.53-.62-4.39-1.53-5.57s-2.77-1.78-5.6-1.78a11.71,11.71,0,0,0-5.51,1A8.94,8.94,0,0,0,59,25c-.88,1.36-1.5,2.26-1.86,2.69a3.1,3.1,0,0,1-2.34.65,4.07,4.07,0,0,1-2.8-1,3.37,3.37,0,0,1-1.17-2.65,8.07,8.07,0,0,1,1.79-4.92,12.74,12.74,0,0,1,5.59-3.94,25.19,25.19,0,0,1,9.46-1.55,26.73,26.73,0,0,1,9.95,1.5,9.23,9.23,0,0,1,5.11,4.73A20.57,20.57,0,0,1,84.23,29c0,2.25,0,4.16,0,5.73s0,3.32-.06,5.24a19.27,19.27,0,0,0,.9,5.65,17.66,17.66,0,0,1,.9,3.77,3.54,3.54,0,0,1-1.39,2.69,4.67,4.67,0,0,1-3.15,1.22,4.28,4.28,0,0,1-2.92-1.39A20.45,20.45,0,0,1,75.45,47.88ZM74.81,34a48.47,48.47,0,0,1-6.13,1.63c-2.69.58-4.54,1-5.57,1.27a7.5,7.5,0,0,0-3,1.58,4,4,0,0,0-1.4,3.29,4.84,4.84,0,0,0,1.65,3.7A6.1,6.1,0,0,0,64.72,47,11.3,11.3,0,0,0,70,45.76a8.42,8.42,0,0,0,3.53-3.22q1.3-2.17,1.3-7.17Z"/><path class="cls-1" d="M100.16,11.81a10.9,10.9,0,0,1,1.71-6,11.72,11.72,0,0,1,5-4.27A17.85,17.85,0,0,1,114.64,0a16.69,16.69,0,0,1,7.67,1.65A11.58,11.58,0,0,1,127.14,6a10.62,10.62,0,0,1,1.6,5.55,10,10,0,0,1-2.6,6.86,33.08,33.08,0,0,1-7.66,5.94q1.76,2.07,3.27,3.9c1,1.22,2,2.36,2.91,3.41s1.8,2,2.57,2.71c.35-.66.9-1.89,1.64-3.69a15.91,15.91,0,0,1,2.07-3.91,3.31,3.31,0,0,1,2.72-1.19,4.12,4.12,0,0,1,2.92,1.18,3.74,3.74,0,0,1,1.27,2.86A13.54,13.54,0,0,1,136.76,34a40.16,40.16,0,0,1-3.17,6.27q1.31,1.13,4.13,3.41a28.64,28.64,0,0,1,3.49,3.12,3.46,3.46,0,0,1,.65,2.19,4.07,4.07,0,0,1-1.32,3.08,4.19,4.19,0,0,1-2.94,1.25,5.57,5.57,0,0,1-3.2-1.06q-1.54-1.05-6.57-5.17a24.37,24.37,0,0,1-4.73,3.52,20.68,20.68,0,0,1-5.24,2,27.13,27.13,0,0,1-6.24.67A22.67,22.67,0,0,1,103.73,52a16.86,16.86,0,0,1-5.82-3.46,14.18,14.18,0,0,1-3.45-4.83,13.72,13.72,0,0,1-1.12-5.4,13.38,13.38,0,0,1,.84-4.83,13.63,13.63,0,0,1,2.38-4,21.52,21.52,0,0,1,3.76-3.37A41.44,41.44,0,0,1,105.5,23a39.85,39.85,0,0,1-4-5.89A11.37,11.37,0,0,1,100.16,11.81Zm10,16.84a20.8,20.8,0,0,0-5.36,4.15A7.28,7.28,0,0,0,103,37.72a7.69,7.69,0,0,0,.65,3.1,9.46,9.46,0,0,0,1.9,2.74,8.47,8.47,0,0,0,2.9,1.93,9.1,9.1,0,0,0,3.48.67,11,11,0,0,0,3.48-.56,13,13,0,0,0,3.2-1.6,24.43,24.43,0,0,0,3.13-2.59,75,75,0,0,1-5.62-5.71Q113.59,32.87,110.11,28.65ZM113.7,19a33.76,33.76,0,0,0,5.18-3.85,5.07,5.07,0,0,0,1.6-3.78,4.78,4.78,0,0,0-1.6-3.66,6.24,6.24,0,0,0-8.09,0,4.72,4.72,0,0,0-1.63,3.55,5.08,5.08,0,0,0,.62,2.27A15.53,15.53,0,0,0,111.3,16C111.91,16.79,112.71,17.8,113.7,19Z"/><path class="cls-1" d="M193.25,36.14A13.73,13.73,0,0,1,192,41.47a19.49,19.49,0,0,1-10.46,10.1,23.81,23.81,0,0,1-9.42,1.73,32.69,32.69,0,0,1-7.42-.78,20.64,20.64,0,0,1-6.06-2.4,20.38,20.38,0,0,1-5-4.31,25.69,25.69,0,0,1-3.48-5.43A28.53,28.53,0,0,1,148,34a34.31,34.31,0,0,1-.73-7.24,32.11,32.11,0,0,1,1.82-11.15,23.74,23.74,0,0,1,5.18-8.42,22.68,22.68,0,0,1,7.91-5.32A25.59,25.59,0,0,1,171.88,0,24,24,0,0,1,183,2.5a20.08,20.08,0,0,1,7.49,6.17,12.13,12.13,0,0,1,2.6,6.94,4.53,4.53,0,0,1-1.26,3.16,4,4,0,0,1-3.06,1.37,4.24,4.24,0,0,1-3-.94,13.66,13.66,0,0,1-2.23-3.27,15.64,15.64,0,0,0-4.8-5.73A11.69,11.69,0,0,0,172,8.3a12.34,12.34,0,0,0-10.25,4.88q-3.81,4.89-3.81,13.89a25.87,25.87,0,0,0,1.68,10,12.62,12.62,0,0,0,4.79,6,13.2,13.2,0,0,0,7.24,2,12.71,12.71,0,0,0,7.61-2.23,13.51,13.51,0,0,0,4.69-6.56,11.3,11.3,0,0,1,1.65-3.32,3.74,3.74,0,0,1,3.17-1.28,4.42,4.42,0,0,1,3.2,1.3A4.31,4.31,0,0,1,193.25,36.14Z"/><path class="cls-1" d="M237.9,33.79a22.72,22.72,0,0,1-1.33,7.91,17.5,17.5,0,0,1-3.87,6.22,17.17,17.17,0,0,1-6,4,21.48,21.48,0,0,1-7.91,1.39,20.74,20.74,0,0,1-7.84-1.41,17.53,17.53,0,0,1-6-4A17.29,17.29,0,0,1,201,41.68a22.6,22.6,0,0,1-1.32-7.89,23,23,0,0,1,1.33-8,17.41,17.41,0,0,1,3.83-6.18,17,17,0,0,1,6.05-4,21.48,21.48,0,0,1,7.84-1.39,21.26,21.26,0,0,1,7.91,1.41,17,17,0,0,1,9.93,10.2A22.71,22.71,0,0,1,237.9,33.79Zm-9.63,0q0-5.88-2.58-9.15a8.4,8.4,0,0,0-6.95-3.26,8.64,8.64,0,0,0-5,1.45,9.25,9.25,0,0,0-3.3,4.31,17.6,17.6,0,0,0-1.16,6.65,17.45,17.45,0,0,0,1.14,6.57,9.46,9.46,0,0,0,3.27,4.31,8.54,8.54,0,0,0,5,1.49,8.4,8.4,0,0,0,6.95-3.29Q228.27,39.59,228.27,33.79Z"/></g></g></svg>