<?xml version="1.0" standalone="no"?>
<!DOCTYPE svg PUBLIC "-//W3C//DTD SVG 20010904//EN"
 "http://www.w3.org/TR/2001/REC-SVG-20010904/DTD/svg10.dtd">
<svg version="1.0" xmlns="http://www.w3.org/2000/svg"
 width="1282.000000pt" height="404.000000pt" viewBox="0 0 1282.000000 404.000000"
 preserveAspectRatio="xMidYMid meet">
<metadata>
Created by potrace 1.16, written by Peter Selinger 2001-2019
</metadata>
<g transform="translate(0.000000,404.000000) scale(0.100000,-0.100000)"
fill="#000000" stroke="none">
<path d="M6050 3516 c-264 -56 -444 -203 -515 -420 -25 -77 -27 -94 -23 -202
6 -169 43 -260 193 -469 36 -49 65 -92 65 -95 0 -3 -27 -20 -60 -38 -200 -110
-376 -260 -455 -386 -24 -39 -56 -107 -71 -151 -25 -71 -28 -95 -28 -215 -1
-115 3 -146 22 -210 93 -295 325 -489 673 -560 92 -19 127 -21 304 -17 175 4
213 8 300 31 135 35 298 117 409 206 l88 71 51 -41 c29 -22 104 -81 167 -130
151 -119 194 -140 282 -140 82 0 128 20 180 78 47 52 65 124 49 197 -10 45
-21 61 -79 116 -37 35 -129 115 -204 176 l-138 113 37 62 c88 151 166 352 179
463 24 198 -230 328 -360 185 -41 -45 -69 -99 -138 -260 -27 -63 -53 -119 -57
-123 -10 -10 -106 94 -301 327 -78 92 -138 172 -133 176 4 4 44 31 88 60 176
117 318 253 369 353 40 80 56 151 56 252 0 161 -50 285 -159 395 -82 82 -159
130 -282 171 -90 31 -102 33 -269 35 -120 2 -196 -1 -240 -10z m355 -350 c59
-28 118 -86 140 -138 18 -44 20 -131 3 -179 -17 -51 -54 -98 -122 -155 -84
-70 -202 -147 -215 -140 -22 14 -163 211 -193 269 -61 122 -30 236 86 320 75
53 214 64 301 23z m-218 -1333 c87 -103 220 -251 296 -329 l138 -142 -73 -61
c-85 -71 -200 -134 -284 -156 -81 -21 -208 -19 -283 4 -195 60 -339 264 -317
447 11 97 42 160 119 241 59 62 216 182 239 183 3 0 78 -84 165 -187z"/>
<path d="M8996 3514 c-519 -97 -894 -476 -1000 -1009 -105 -535 25 -1083 336
-1410 176 -186 358 -280 630 -326 106 -18 152 -20 333 -16 185 4 222 7 308 30
187 50 357 146 488 276 170 169 269 380 269 573 0 102 -23 155 -88 205 -73 55
-208 64 -279 18 -38 -25 -80 -91 -114 -178 -75 -195 -149 -301 -269 -382 -109
-74 -186 -97 -342 -103 -149 -5 -237 11 -344 62 -130 62 -223 161 -295 311
-131 271 -142 744 -25 1057 47 124 90 191 181 283 131 132 264 185 465 185
281 0 437 -108 620 -429 51 -89 104 -149 147 -168 50 -20 166 -17 212 7 41 20
81 63 108 114 24 43 23 174 -1 246 -99 298 -385 539 -753 637 -87 23 -121 26
-303 29 -151 2 -226 -1 -284 -12z"/>
<path d="M457 3464 c-69 -21 -131 -86 -154 -161 -17 -54 -18 -127 -18 -1163 0
-1256 -5 -1181 80 -1265 78 -78 63 -77 792 -72 601 4 643 5 733 25 205 45 302
94 420 212 148 147 210 301 210 520 0 297 -115 476 -390 609 -46 23 -90 41
-97 41 -27 0 -11 16 52 53 189 110 297 282 311 496 21 301 -161 571 -453 672
-128 44 -212 49 -843 48 -496 0 -603 -3 -643 -15z m1085 -419 c228 -40 310
-122 310 -311 0 -61 -5 -84 -30 -136 -16 -35 -47 -80 -68 -101 -93 -92 -170
-107 -591 -114 l-323 -6 0 348 0 348 308 -6 c203 -4 336 -12 394 -22z m83
-1080 c156 -32 254 -94 302 -193 25 -52 28 -67 28 -167 0 -92 -4 -118 -22
-157 -31 -69 -97 -134 -167 -167 -113 -54 -177 -62 -568 -68 l-358 -6 0 393 0
393 353 -6 c271 -4 370 -9 432 -22z"/>
<path d="M3595 2783 c-388 -50 -655 -264 -657 -526 0 -74 15 -110 66 -155 44
-38 104 -55 173 -50 70 6 93 24 161 126 142 211 236 258 496 250 153 -5 197
-16 249 -66 16 -15 37 -44 48 -64 23 -45 49 -149 49 -199 l0 -36 -117 -31
c-167 -44 -295 -74 -553 -127 -318 -66 -390 -96 -506 -207 -67 -64 -113 -140
-139 -232 -26 -90 -17 -269 17 -353 66 -159 197 -278 370 -334 66 -22 90 -24
253 -24 158 0 190 3 260 23 106 30 238 95 357 176 l98 65 39 -58 c57 -84 138
-169 182 -192 59 -29 151 -26 213 9 111 61 138 146 96 298 -12 43 -31 113 -42
154 -20 69 -22 112 -28 550 -6 439 -9 481 -28 557 -68 263 -227 391 -542 439
-87 13 -432 18 -515 7z m582 -1170 c-6 -151 -20 -214 -63 -293 -53 -98 -193
-194 -321 -220 -85 -18 -228 -9 -279 18 -101 52 -154 133 -154 236 0 80 27
135 90 181 70 52 102 62 360 121 129 29 262 62 295 72 33 11 64 20 69 21 5 1
6 -58 3 -136z"/>
<path d="M11495 2783 c-176 -25 -364 -109 -496 -224 -221 -192 -343 -546 -310
-901 27 -279 121 -491 289 -650 88 -83 143 -120 245 -168 139 -65 217 -81 422
-87 158 -4 193 -2 285 17 179 36 322 108 447 224 132 123 220 273 269 461 36
134 45 401 20 540 -77 416 -341 693 -741 776 -68 14 -128 18 -245 17 -85 0
-168 -3 -185 -5z m387 -416 c128 -63 211 -172 260 -344 20 -68 23 -101 23
-253 0 -153 -3 -185 -23 -255 -49 -168 -134 -280 -260 -342 -76 -38 -77 -38
-201 -38 -121 0 -128 1 -192 32 -123 61 -219 192 -266 363 -14 51 -18 103 -18
240 0 196 10 251 70 378 36 76 113 167 172 204 70 43 141 58 254 55 99 -2 110
-4 181 -40z"/>
</g>
</svg>
