<svg width="36" height="36" viewBox="0 0 36 36" fill="none" xmlns="http://www.w3.org/2000/svg">
<rect width="36" height="36" rx="5" fill="#444444"/>
<path fill-rule="evenodd" clip-rule="evenodd" d="M8.66668 6.33301H27.3333C28.622 6.33301 29.6667 7.37768 29.6667 8.66634V27.333C29.6667 28.6217 28.622 29.6663 27.3333 29.6663H8.66668C7.37801 29.6663 6.33334 28.6217 6.33334 27.333V8.66634C6.33334 7.37768 7.37801 6.33301 8.66668 6.33301ZM8.66668 8.66634V27.333H27.3333V8.66634H8.66668ZM14 18.0048H16.1781V24.9997H18.5114V18.0048H20.8243V15.6715H18.5114V14.4997C18.5114 13.8553 19.0338 13.333 19.6781 13.333H20.8448V10.9997H19.6781C17.7451 10.9997 16.1781 12.5667 16.1781 14.4997V15.6715H14V18.0048Z" fill="#F2F2F2"/>
</svg>
