<svg width="36" height="36" viewBox="0 0 36 36" fill="none" xmlns="http://www.w3.org/2000/svg">
<rect width="36" height="36" rx="5" fill="#444444"/>
<path fill-rule="evenodd" clip-rule="evenodd" d="M22.6667 6.33301H13.3333C9.46735 6.33301 6.33334 9.46701 6.33334 13.333V22.6663C6.33334 26.5323 9.46735 29.6663 13.3333 29.6663H22.6667C26.5327 29.6663 29.6667 26.5323 29.6667 22.6663V13.333C29.6667 9.46701 26.5327 6.33301 22.6667 6.33301ZM8.66668 13.333C8.66668 10.7557 10.756 8.66634 13.3333 8.66634H22.6667C25.244 8.66634 27.3333 10.7557 27.3333 13.333V22.6663C27.3333 25.2437 25.244 27.333 22.6667 27.333H13.3333C10.756 27.333 8.66668 25.2437 8.66668 22.6663V13.333ZM18 23.833C14.7783 23.833 12.1667 21.2213 12.1667 17.9997C12.1667 14.778 14.7783 12.1663 18 12.1663C21.2217 12.1663 23.8333 14.778 23.8333 17.9997C23.8333 21.2213 21.2217 23.833 18 23.833ZM18 21.4997C19.933 21.4997 21.5 19.9327 21.5 17.9997C21.5 16.0667 19.933 14.4997 18 14.4997C16.067 14.4997 14.5 16.0667 14.5 17.9997C14.5 19.9327 16.067 21.4997 18 21.4997ZM25 12.1663C25 12.8107 24.4777 13.333 23.8333 13.333C23.189 13.333 22.6667 12.8107 22.6667 12.1663C22.6667 11.522 23.189 10.9997 23.8333 10.9997C24.4777 10.9997 25 11.522 25 12.1663Z" fill="#F2F2F2"/>
</svg>
