<svg width="30" height="30" viewBox="0 0 30 30" fill="none" xmlns="http://www.w3.org/2000/svg">
<path fill-rule="evenodd" clip-rule="evenodd" d="M1.66667 0H7.5C8.41667 0 9.16667 0.75 9.16667 1.66667C9.16667 3.75 9.5 5.75 10.1167 7.61667C10.3 8.2 10.1667 8.85 9.7 9.31667L6.03333 12.9833C8.43333 17.7 12.3 21.55 17.0167 23.9667L20.6833 20.3C21.0167 19.9833 21.4333 19.8167 21.8667 19.8167C22.0333 19.8167 22.2167 19.8333 22.3833 19.9C24.25 20.5167 26.2667 20.85 28.3333 20.85C29.25 20.85 30 21.6 30 22.5167V28.3333C30 29.25 29.25 30 28.3333 30C12.6833 30 0 17.3167 0 1.66667C0 0.75 0.75 0 1.66667 0ZM5.90003 3.33336C6.00003 4.8167 6.25003 6.2667 6.65003 7.65003L4.65003 9.65003C3.9667 7.65003 3.53337 5.53336 3.38337 3.33336H5.90003ZM22.3333 23.3667C23.75 23.7667 25.2 24.0167 26.6666 24.1167V26.6C24.4666 26.45 22.35 26.0167 20.3333 25.35L22.3333 23.3667Z" fill="#444444"/>
</svg>
