<svg width="24" height="24" viewBox="0 0 24 24" fill="none" xmlns="http://www.w3.org/2000/svg">
<path fill-rule="evenodd" clip-rule="evenodd" d="M1.33333 0H6C6.73333 0 7.33333 0.6 7.33333 1.33333C7.33333 3 7.6 4.6 8.09333 6.09333C8.24 6.56 8.13333 7.08 7.76 7.45333L4.82667 10.3867C6.74667 14.16 9.84 17.24 13.6133 19.1733L16.5467 16.24C16.8133 15.9867 17.1467 15.8533 17.4933 15.8533C17.6267 15.8533 17.7733 15.8667 17.9067 15.92C19.4 16.4133 21.0133 16.68 22.6667 16.68C23.4 16.68 24 17.28 24 18.0133V22.6667C24 23.4 23.4 24 22.6667 24C10.1467 24 0 13.8533 0 1.33333C0 0.6 0.6 0 1.33333 0ZM4.72003 2.6668C4.80003 3.85346 5.00003 5.01346 5.32003 6.12013L3.72003 7.72013C3.17336 6.12013 2.82669 4.4268 2.70669 2.6668H4.72003ZM17.8666 18.6934C19 19.0134 20.16 19.2134 21.3333 19.2934V21.28C19.5733 21.16 17.88 20.8134 16.2666 20.28L17.8666 18.6934Z" fill="#F2F2F2"/>
</svg>
