<svg width="36" height="36" viewBox="0 0 36 36" fill="none" xmlns="http://www.w3.org/2000/svg">
<rect width="36" height="36" rx="5" fill="#444444"/>
<path fill-rule="evenodd" clip-rule="evenodd" d="M29.6956 25.1499C30.4927 23.7837 30.8334 21.5807 30.8334 17.9971C30.8334 14.4277 30.496 12.2376 29.6903 10.8347C28.8828 9.37792 27.9252 8.91553 26.0247 8.80454C24.7273 8.7166 21.5027 8.66699 18.0031 8.66699C14.4961 8.66699 11.27 8.71658 9.96286 8.80523C8.07299 8.91579 7.11515 9.3792 6.30061 10.84C5.50663 12.238 5.16669 14.4389 5.16669 18.0101C5.16669 21.561 5.50828 23.773 6.30758 25.1664C7.11154 26.6084 8.05411 27.0663 9.96006 27.2001C11.3299 27.2803 14.7385 27.3337 18.0031 27.3337C21.2604 27.3337 24.6674 27.2803 26.0247 27.201C27.9482 27.0663 28.8906 26.6077 29.6956 25.1499ZM25.8778 11.1332C27.0666 11.2027 27.2871 11.3096 27.6639 11.9916C28.2125 12.9417 28.5 14.801 28.5 18.0101C28.5 21.195 28.211 23.0645 27.6665 23.9982C27.2883 24.6823 27.0694 24.7888 25.8751 24.8725C24.5904 24.9475 21.2165 25.0003 18.0031 25.0003C14.7825 25.0003 11.4069 24.9475 10.1099 24.8716C8.93036 24.7887 8.70828 24.6809 8.33854 24.0178C7.79036 23.0619 7.50002 21.1819 7.50002 17.9971C7.50002 14.8141 7.78881 12.9444 8.33406 11.9843C8.70956 11.311 8.9332 11.2028 10.11 11.1339C11.3559 11.0495 14.5516 11.0003 18.0031 11.0003C21.4472 11.0003 24.6414 11.0495 25.8778 11.1332ZM15.6667 14.5003L21.5 18.0003L15.6667 21.5003V14.5003Z" fill="#F2F2F2"/>
</svg>
